<svg width="127" height="48" viewBox="0 0 127 48" fill="none" xmlns="http://www.w3.org/2000/svg">
<path d="M63.1672 32.3443C63.9483 32.3443 64.7046 32.2401 65.436 32.0317C66.1745 31.8233 66.835 31.5108 67.4173 31.094C67.9996 30.6699 68.4612 30.1378 68.802 29.4978C69.15 28.8503 69.324 28.095 69.324 27.2317C69.324 26.4206 69.1784 25.7508 68.8872 25.2224C68.6032 24.694 68.2375 24.2699 67.7901 23.9499C67.3498 23.6224 66.8882 23.3694 66.4053 23.1908C65.9225 23.0047 65.4822 22.8559 65.0845 22.7443L62.4215 21.9852C62.0949 21.8959 61.7753 21.7843 61.4629 21.6503C61.1504 21.5164 60.8912 21.3415 60.6853 21.1257C60.4793 20.9024 60.3764 20.6159 60.3764 20.2661C60.3764 19.8866 60.5006 19.5592 60.7492 19.2838C61.0048 19.0085 61.3315 18.8001 61.7291 18.6587C62.1339 18.5099 62.5635 18.4429 63.018 18.4578C63.714 18.4801 64.3531 18.6959 64.9354 19.1052C65.5177 19.5145 65.894 20.1099 66.0645 20.8913L69.1961 20.3331C68.8269 18.8224 68.1096 17.6652 67.0445 16.8615C65.9793 16.0578 64.6513 15.6447 63.0606 15.6224C62.0096 15.615 61.051 15.7861 60.1846 16.1359C59.3183 16.4857 58.6259 17.0178 58.1075 17.7322C57.5891 18.4466 57.3299 19.3434 57.3299 20.4224C57.3299 21.1889 57.4506 21.8252 57.6921 22.3313C57.9406 22.8299 58.2495 23.2317 58.6188 23.5368C58.9881 23.842 59.368 24.0764 59.7585 24.2401C60.1562 24.4038 60.5042 24.5303 60.8024 24.6196L64.7862 25.8475C65.3828 26.0336 65.7804 26.268 65.9793 26.5508C66.1781 26.8261 66.2775 27.1275 66.2775 27.455C66.2775 27.9015 66.1319 28.2773 65.8408 28.5824C65.5567 28.8875 65.191 29.1182 64.7436 29.2745C64.2963 29.4308 63.8347 29.5089 63.3589 29.5089C62.5067 29.5089 61.7469 29.2596 61.0794 28.761C60.4119 28.2624 59.9716 27.5517 59.7585 26.6289L56.7334 27.0978C56.8896 28.1843 57.2589 29.122 57.8412 29.9108C58.4306 30.6922 59.1798 31.295 60.0888 31.7192C61.0048 32.1359 62.031 32.3443 63.1672 32.3443Z" fill="#0B0F19"/>
<path d="M71.8783 18.2792H74.7756V15.6001H71.8783V18.2792ZM71.8783 32.0094H74.7756V19.9536H71.8783V32.0094Z" fill="#0B0F19"/>
<path d="M78.182 32.0094H81.0794V15.6001H78.182V32.0094Z" fill="#0B0F19"/>
<path d="M84.4858 18.2792H87.3831V15.6001H84.4858V18.2792ZM84.4858 32.0094H87.3831V19.9536H84.4858V32.0094Z" fill="#0B0F19"/>
<path d="M95.6469 32.3443C96.9819 32.3443 98.1039 31.9982 99.0129 31.3061C99.9218 30.614 100.54 29.628 100.866 28.348L97.9051 27.7006C97.7346 28.281 97.479 28.7275 97.1381 29.0401C96.7973 29.3526 96.3002 29.5089 95.6469 29.5089C94.7734 29.5089 94.113 29.1852 93.6656 28.5378C93.2253 27.8829 93.0052 27.0308 93.0052 25.9815C93.0052 24.9768 93.2147 24.1396 93.6336 23.4699C94.0597 22.7927 94.7308 22.454 95.6469 22.454C96.1795 22.454 96.6552 22.6289 97.0742 22.9787C97.5003 23.3285 97.7985 23.8159 97.969 24.441L100.866 23.6373C100.611 22.3945 100.021 21.4159 99.0981 20.7015C98.182 19.9796 97.0458 19.6187 95.6895 19.6187C94.5178 19.6187 93.5023 19.894 92.643 20.4447C91.7838 20.9954 91.1162 21.7508 90.6405 22.7108C90.1718 23.6708 89.9374 24.761 89.9374 25.9815C89.9374 27.1871 90.1647 28.2699 90.6191 29.2299C91.0736 30.1899 91.7269 30.9489 92.5791 31.5071C93.4313 32.0652 94.4538 32.3443 95.6469 32.3443Z" fill="#0B0F19"/>
<path d="M107.862 32.3443C109.012 32.3443 110.024 32.0764 110.897 31.5406C111.778 30.9973 112.463 30.2494 112.953 29.2968C113.45 28.3368 113.699 27.2317 113.699 25.9815C113.699 24.7387 113.454 23.641 112.964 22.6885C112.474 21.7285 111.789 20.9768 110.908 20.4336C110.035 19.8903 109.019 19.6187 107.862 19.6187C106.725 19.6187 105.721 19.8866 104.847 20.4224C103.974 20.9582 103.288 21.7061 102.791 22.6661C102.294 23.6187 102.046 24.7238 102.046 25.9815C102.046 27.2243 102.287 28.3257 102.77 29.2857C103.26 30.2382 103.942 30.9861 104.815 31.5294C105.689 32.0726 106.704 32.3443 107.862 32.3443ZM107.862 29.5089C106.96 29.5089 106.274 29.1926 105.806 28.5601C105.344 27.9201 105.113 27.0606 105.113 25.9815C105.113 24.9322 105.334 24.0838 105.774 23.4364C106.221 22.7815 106.917 22.454 107.862 22.454C108.778 22.454 109.467 22.774 109.928 23.414C110.397 24.054 110.631 24.9099 110.631 25.9815C110.631 27.0159 110.4 27.8643 109.939 28.5266C109.484 29.1815 108.792 29.5089 107.862 29.5089Z" fill="#0B0F19"/>
<path d="M116.02 32.0094H118.96V25.8922C118.96 25.1406 119.038 24.5378 119.194 24.0838C119.358 23.6299 119.564 23.2875 119.812 23.0568C120.061 22.8187 120.327 22.6587 120.611 22.5768C120.895 22.495 121.161 22.454 121.41 22.454C122.028 22.454 122.503 22.5992 122.837 22.8894C123.178 23.1796 123.423 23.5406 123.572 23.9722C123.721 24.4038 123.81 24.8354 123.838 25.2671C123.867 25.6913 123.881 26.041 123.881 26.3164V32.0094H126.821V25.2447C126.821 25.0438 126.807 24.7238 126.778 24.2847C126.75 23.8457 126.668 23.362 126.533 22.8336C126.398 22.2978 126.171 21.7843 125.852 21.2931C125.539 20.802 125.099 20.3964 124.531 20.0764C123.963 19.7564 123.228 19.5964 122.326 19.5964C121.495 19.5964 120.771 19.7415 120.153 20.0317C119.535 20.322 119.017 20.7089 118.598 21.1927V19.9536H116.02V32.0094Z" fill="#0B0F19"/>
<path d="M10.6361 24L4.25446 13.3953L23.9313 0L23.3995 11.7209L10.6361 24Z" fill="url(#paint0_linear_4632_11308)"/>
<path d="M23.3995 11.7209L23.9313 0L44.14 9.48837L39.8855 28.4651L12.7634 32.9302L10.6361 24L23.3995 11.7209Z" fill="url(#paint1_linear_4632_11308)"/>
<path d="M32.4402 48L12.7634 32.9302L39.8855 28.4651L44.6718 33.4884L32.4402 48Z" fill="url(#paint2_linear_4632_11308)"/>
<path d="M39.8855 28.4651L44.6718 33.4884L48.9262 19.5349L44.14 9.48837L39.8855 28.4651Z" fill="url(#paint3_linear_4632_11308)"/>
<path d="M12.7634 32.9302L32.4402 48L12.7634 45.2093L0 29.0232L12.7634 32.9302Z" fill="url(#paint4_linear_4632_11308)"/>
<path d="M4.25446 13.3953L0 29.0232L12.7634 32.9302L10.6361 24L4.25446 13.3953Z" fill="url(#paint5_linear_4632_11308)"/>
<path d="M32.4405 48.0002L12.7637 32.9304L39.8858 28.4653L44.6721 33.4886L32.4405 48.0002Z" fill="black" fill-opacity="0.17"/>
<path d="M39.8848 28.465L44.671 33.4883L48.9255 19.5348L44.1392 9.48828L39.8848 28.465Z" fill="black" fill-opacity="0.1"/>
<path d="M12.7634 32.9304L32.4402 48.0002L12.7634 45.2095L0 29.0234L12.7634 32.9304Z" fill="black" fill-opacity="0.23"/>
<path d="M4.25445 13.3955L0 29.0234L12.7634 32.9304L10.6361 24.0002L4.25445 13.3955Z" fill="#C0C0C0" fill-opacity="0.05"/>
<path d="M10.6361 24L4.25445 13.3953L23.9313 0L23.3995 11.7209L10.6361 24Z" fill="white" fill-opacity="0.15"/>
<path fill-rule="evenodd" clip-rule="evenodd" d="M10.6361 24L23.3995 11.7209L23.9313 0L4.25445 13.3953L10.6361 24ZM10.702 23.4823L23.087 11.5672L23.583 0.636286L4.69257 13.4962L10.702 23.4823Z" fill="white" fill-opacity="0.15"/>
<path fill-rule="evenodd" clip-rule="evenodd" d="M23.712 11.8746L10.9918 24.1121L13.0022 32.5519L39.6241 28.1692L43.769 9.68104L24.2278 0.506073L23.712 11.8746ZM23.3995 11.7209L10.6361 24L12.7634 32.9302L39.8855 28.4651L44.14 9.48837L23.9313 0L23.3995 11.7209Z" fill="white" fill-opacity="0.15"/>
<path fill-rule="evenodd" clip-rule="evenodd" d="M32.3937 47.5498L44.2339 33.5024L39.7746 28.8223L13.5732 33.1359L32.3937 47.5498ZM32.4402 48L44.6718 33.4884L39.8855 28.4651L12.7634 32.9302L32.4402 48Z" fill="white" fill-opacity="0.15"/>
<path fill-rule="evenodd" clip-rule="evenodd" d="M44.6718 33.4884L48.9262 19.5349L44.14 9.48837L39.8855 28.4651L44.6718 33.4884ZM40.2368 28.3602L44.5274 32.8632L48.5827 19.5627L44.2487 10.4654L40.2368 28.3602Z" fill="white" fill-opacity="0.15"/>
<path fill-rule="evenodd" clip-rule="evenodd" d="M12.6204 33.2353L0.908564 29.6502L12.9297 44.8949L31.2344 47.491L12.6204 33.2353ZM12.7634 32.9302L0 29.0232L12.7634 45.2093L32.4402 48L12.7634 32.9302Z" fill="white" fill-opacity="0.15"/>
<path fill-rule="evenodd" clip-rule="evenodd" d="M0.393986 28.795L12.319 32.4453L10.339 24.1334L4.36539 14.2068L0.393986 28.795ZM0 29.0232L12.7634 32.9302L10.6361 24L4.25445 13.3953L0 29.0232Z" fill="white" fill-opacity="0.15"/>
<path d="M24.6687 20.7443H28.2792C28.227 17.4165 25.617 15.1189 21.6498 15.1189C17.7434 15.1189 14.8811 17.38 14.8985 20.7717C14.8898 23.5251 16.7429 25.1024 19.7532 25.8591L21.6933 26.3697C23.6334 26.862 24.7122 27.4456 24.7209 28.7037C24.7122 30.0713 23.4768 31.0013 21.5628 31.0013C19.6053 31.0013 18.1958 30.0531 18.074 28.1841H14.4287C14.5244 32.223 17.2823 34.3109 21.6063 34.3109C25.9563 34.3109 28.5141 32.1319 28.5228 28.7129C28.5141 25.6039 26.2782 23.9536 23.181 23.2242L21.5802 22.8231C20.0316 22.4493 18.7353 21.8475 18.7614 20.5073C18.7614 19.3038 19.7793 18.4194 21.6237 18.4194C23.4246 18.4194 24.5295 19.2764 24.6687 20.7443Z" fill="white"/>
<path d="M33.8851 21.0571H30.5201V34.0465H33.8851V21.0571Z" fill="white"/>
<path d="M32.6308 10.8076H31.3992L29.8649 11.8256V13.0433L31.2842 12.111H31.3205V17.3023H32.6308V10.8076Z" fill="white"/>
<path d="M34.0099 16.1607H36.9846V17.3023H38.2374V16.1607H39.0061V15.0603H38.2374V10.8076H36.5973L34.0099 15.0793V16.1607ZM37.0088 15.0603H35.3293V15.0095L36.9604 12.3044H37.0088V15.0603Z" fill="white"/>
<defs>
<linearGradient id="paint0_linear_4632_11308" x1="0" y1="24.1148" x2="48.9262" y2="24.1148" gradientUnits="userSpaceOnUse">
<stop stop-color="#6366F1"/>
<stop offset="0.5" stop-color="#8B5CF6"/>
<stop offset="1" stop-color="#D946EF"/>
</linearGradient>
<linearGradient id="paint1_linear_4632_11308" x1="0" y1="24.1148" x2="48.9262" y2="24.1148" gradientUnits="userSpaceOnUse">
<stop stop-color="#6366F1"/>
<stop offset="0.5" stop-color="#8B5CF6"/>
<stop offset="1" stop-color="#D946EF"/>
</linearGradient>
<linearGradient id="paint2_linear_4632_11308" x1="0" y1="24.1148" x2="48.9262" y2="24.1148" gradientUnits="userSpaceOnUse">
<stop stop-color="#6366F1"/>
<stop offset="0.5" stop-color="#8B5CF6"/>
<stop offset="1" stop-color="#D946EF"/>
</linearGradient>
<linearGradient id="paint3_linear_4632_11308" x1="0" y1="24.1148" x2="48.9262" y2="24.1148" gradientUnits="userSpaceOnUse">
<stop stop-color="#6366F1"/>
<stop offset="0.5" stop-color="#8B5CF6"/>
<stop offset="1" stop-color="#D946EF"/>
</linearGradient>
<linearGradient id="paint4_linear_4632_11308" x1="0" y1="24.1148" x2="48.9262" y2="24.1148" gradientUnits="userSpaceOnUse">
<stop stop-color="#6366F1"/>
<stop offset="0.5" stop-color="#8B5CF6"/>
<stop offset="1" stop-color="#D946EF"/>
</linearGradient>
<linearGradient id="paint5_linear_4632_11308" x1="0" y1="24.1148" x2="48.9262" y2="24.1148" gradientUnits="userSpaceOnUse">
<stop stop-color="#6366F1"/>
<stop offset="0.5" stop-color="#8B5CF6"/>
<stop offset="1" stop-color="#D946EF"/>
</linearGradient>
</defs>
</svg>
